<?xml version="1.0" encoding="UTF-8"?>
<svg xmlns="http://www.w3.org/2000/svg" xmlns:xlink="http://www.w3.org/1999/xlink" width="25px" height="32px" viewBox="0 0 25 31" version="1.1">
<g id="surface1">
<path style=" stroke:none;fill-rule:evenodd;fill:rgb(0%,0%,0%);fill-opacity:1;" d="M 12.277344 2.957031 L 2.5 9.335938 L 2.5 21.285156 L 9.726562 26.238281 L 9.722656 26.902344 L 10.882812 27.699219 L 11.160156 16.246094 L 4.617188 9.484375 L 12.285156 15.214844 L 20.027344 9.484375 L 13.585938 16.246094 L 13.753906 27.699219 L 14.953125 26.859375 L 14.949219 26.246094 L 22.136719 21.226562 L 22.136719 9.359375 L 12.277344 2.957031 M 14.476562 7.34375 L 15.355469 9.050781 L 16.128906 7.34375 L 16.902344 7.34375 L 15.78125 9.871094 L 15.78125 11.578125 L 14.96875 11.578125 L 14.96875 9.871094 L 13.828125 7.648438 L 11.929688 10.875 L 13.683594 10.875 L 13.683594 11.578125 L 10.964844 11.578125 L 10.964844 10.914062 L 12.792969 8.101562 L 11.128906 8.101562 L 11.128906 7.34375 L 14.476562 7.34375 M 10.703125 7.34375 L 10.703125 8.101562 L 8.980469 8.101562 L 8.980469 9.082031 L 10.578125 9.082031 L 10.578125 9.804688 L 8.980469 9.804688 L 8.980469 10.851562 L 10.703125 10.851562 L 10.703125 11.578125 L 8.164062 11.578125 L 8.164062 7.34375 L 10.703125 7.34375 M 21.109375 11.050781 L 21.183594 20.847656 L 14.269531 25.742188 L 14.273438 23.894531 L 19.5 20.089844 L 19.523438 17.207031 L 14.273438 20.980469 L 14.304688 18.578125 L 19.496094 14.710938 L 19.496094 13.019531 L 21.109375 11.050781 M 5.054688 13.019531 L 5.054688 14.710938 L 10.246094 18.578125 L 10.277344 20.980469 L 5.027344 17.207031 L 5.050781 20.089844 L 10.277344 23.894531 L 10.28125 25.742188 L 3.367188 20.847656 L 3.441406 11.050781 L 5.054688 13.019531 "/>
<path style=" stroke:none;fill-rule:evenodd;fill:rgb(97.254902%,84.313726%,19.215687%);fill-opacity:1;" d="M 24.574219 8.066406 L 12.277344 0.0820312 L 0.0625 8.046875 L 0.0625 22.28125 L 12.277344 30.804688 L 24.574219 22.28125 L 24.574219 8.066406 M 24.332031 22.15625 L 12.277344 30.511719 L 0.308594 22.15625 L 0.308594 8.175781 L 12.277344 0.367188 L 24.332031 8.195312 L 24.332031 22.15625 M 23.949219 21.960938 L 12.277344 30.050781 L 0.691406 21.960938 L 0.691406 8.375 L 12.277344 0.820312 L 23.949219 8.398438 L 23.949219 21.960938 M 23.808594 21.890625 L 12.277344 29.882812 L 0.828125 21.890625 L 0.828125 8.449219 L 12.277344 0.984375 L 23.808594 8.472656 L 23.808594 21.890625 M 23.390625 21.675781 L 12.277344 29.378906 L 1.246094 21.679688 L 1.246094 8.671875 L 12.277344 1.476562 L 23.390625 8.695312 L 23.390625 21.675781 M 22.136719 21.226562 L 14.949219 26.246094 L 14.953125 26.859375 L 12.335938 28.695312 L 10.882812 27.699219 L 9.722656 26.902344 L 9.726562 26.238281 L 2.5 21.285156 L 2.5 9.335938 L 12.277344 2.957031 L 22.136719 9.359375 L 22.136719 21.226562 M 21.109375 11.050781 L 21.183594 20.847656 L 14.269531 25.742188 L 14.273438 23.894531 L 19.5 20.089844 L 19.523438 17.207031 L 14.273438 20.980469 L 14.304688 18.578125 L 19.496094 14.710938 L 19.496094 13.019531 L 21.109375 11.050781 M 15.78125 9.871094 L 15.78125 11.578125 L 14.96875 11.578125 L 14.96875 9.871094 L 13.828125 7.648438 L 11.929688 10.875 L 13.683594 10.875 L 13.683594 11.578125 L 10.964844 11.578125 L 10.964844 10.914062 L 12.792969 8.101562 L 11.128906 8.101562 L 11.128906 7.34375 L 14.476562 7.34375 L 15.355469 9.050781 L 16.128906 7.34375 L 16.902344 7.34375 L 15.78125 9.871094 M 10.703125 10.851562 L 10.703125 11.578125 L 8.164062 11.578125 L 8.164062 7.34375 L 10.703125 7.34375 L 10.703125 8.101562 L 8.980469 8.101562 L 8.980469 9.082031 L 10.578125 9.082031 L 10.578125 9.804688 L 8.980469 9.804688 L 8.980469 10.851562 L 10.703125 10.851562 M 10.246094 18.578125 L 10.277344 20.980469 L 5.027344 17.207031 L 5.050781 20.089844 L 10.277344 23.894531 L 10.28125 25.742188 L 3.367188 20.847656 L 3.441406 11.050781 L 5.054688 13.019531 L 5.054688 14.710938 L 10.246094 18.578125 M 23.949219 8.398438 L 12.277344 0.820312 L 0.691406 8.375 L 0.691406 21.960938 L 12.277344 30.050781 L 23.949219 21.960938 L 23.949219 8.398438 M 21.183594 20.847656 L 14.269531 25.742188 L 14.273438 23.894531 L 19.5 20.089844 L 19.523438 17.207031 L 14.273438 20.980469 L 14.304688 18.578125 L 19.496094 14.710938 L 19.496094 13.019531 L 21.109375 11.050781 L 21.183594 20.847656 M 15.78125 11.578125 L 14.96875 11.578125 L 14.96875 9.871094 L 13.828125 7.648438 L 11.929688 10.875 L 13.683594 10.875 L 13.683594 11.578125 L 10.964844 11.578125 L 10.964844 10.914062 L 12.792969 8.101562 L 11.128906 8.101562 L 11.128906 7.34375 L 14.476562 7.34375 L 15.355469 9.050781 L 16.128906 7.34375 L 16.902344 7.34375 L 15.78125 9.871094 L 15.78125 11.578125 M 10.703125 11.578125 L 8.164062 11.578125 L 8.164062 7.34375 L 10.703125 7.34375 L 10.703125 8.101562 L 8.980469 8.101562 L 8.980469 9.082031 L 10.578125 9.082031 L 10.578125 9.804688 L 8.980469 9.804688 L 8.980469 10.851562 L 10.703125 10.851562 L 10.703125 11.578125 M 23.390625 8.695312 L 12.277344 1.476562 L 1.246094 8.671875 L 1.246094 21.679688 L 12.277344 29.378906 L 23.390625 21.675781 L 23.390625 8.695312 "/>
<path style=" stroke:none;fill-rule:evenodd;fill:rgb(97.254902%,84.313726%,19.215687%);fill-opacity:1;" d="M 23.949219 8.398438 L 12.277344 0.820312 L 0.691406 8.375 L 0.691406 21.960938 L 12.277344 30.050781 L 23.949219 21.960938 L 23.949219 8.398438 M 23.808594 21.890625 L 12.277344 29.882812 L 0.828125 21.890625 L 0.828125 8.449219 L 12.277344 0.984375 L 23.808594 8.472656 L 23.808594 21.890625 M 23.390625 21.675781 L 12.277344 29.378906 L 1.246094 21.679688 L 1.246094 8.671875 L 12.277344 1.476562 L 23.390625 8.695312 L 23.390625 21.675781 M 22.136719 21.226562 L 14.949219 26.246094 L 14.953125 26.859375 L 12.335938 28.695312 L 10.882812 27.699219 L 9.722656 26.902344 L 9.726562 26.238281 L 2.5 21.285156 L 2.5 9.335938 L 12.277344 2.957031 L 22.136719 9.359375 L 22.136719 21.226562 M 21.183594 20.847656 L 14.269531 25.742188 L 14.273438 23.894531 L 19.5 20.089844 L 19.523438 17.207031 L 14.273438 20.980469 L 14.304688 18.578125 L 19.496094 14.710938 L 19.496094 13.019531 L 21.109375 11.050781 L 21.183594 20.847656 M 15.78125 11.578125 L 14.96875 11.578125 L 14.96875 9.871094 L 13.828125 7.648438 L 11.929688 10.875 L 13.683594 10.875 L 13.683594 11.578125 L 10.964844 11.578125 L 10.964844 10.914062 L 12.792969 8.101562 L 11.128906 8.101562 L 11.128906 7.34375 L 14.476562 7.34375 L 15.355469 9.050781 L 16.128906 7.34375 L 16.902344 7.34375 L 15.78125 9.871094 L 15.78125 11.578125 M 10.703125 11.578125 L 8.164062 11.578125 L 8.164062 7.34375 L 10.703125 7.34375 L 10.703125 8.101562 L 8.980469 8.101562 L 8.980469 9.082031 L 10.578125 9.082031 L 10.578125 9.804688 L 8.980469 9.804688 L 8.980469 10.851562 L 10.703125 10.851562 L 10.703125 11.578125 M 10.246094 18.578125 L 10.277344 20.980469 L 5.027344 17.207031 L 5.050781 20.089844 L 10.277344 23.894531 L 10.28125 25.742188 L 3.367188 20.847656 L 3.441406 11.050781 L 5.054688 13.019531 L 5.054688 14.710938 L 10.246094 18.578125 "/>
<path style=" stroke:none;fill-rule:evenodd;fill:rgb(97.254902%,84.313726%,19.215687%);fill-opacity:1;" d="M 23.390625 8.695312 L 12.277344 1.476562 L 1.246094 8.671875 L 1.246094 21.679688 L 12.277344 29.378906 L 23.390625 21.675781 L 23.390625 8.695312 M 22.136719 21.226562 L 14.949219 26.246094 L 14.953125 26.859375 L 12.335938 28.695312 L 10.882812 27.699219 L 9.722656 26.902344 L 9.726562 26.238281 L 2.5 21.285156 L 2.5 9.335938 L 12.277344 2.957031 L 22.136719 9.359375 L 22.136719 21.226562 M 21.183594 20.847656 L 14.269531 25.742188 L 14.273438 23.894531 L 19.5 20.089844 L 19.523438 17.207031 L 14.273438 20.980469 L 14.304688 18.578125 L 19.496094 14.710938 L 19.496094 13.019531 L 21.109375 11.050781 L 21.183594 20.847656 M 15.78125 9.871094 L 15.78125 11.578125 L 14.96875 11.578125 L 14.96875 9.871094 L 13.828125 7.648438 L 11.929688 10.875 L 13.683594 10.875 L 13.683594 11.578125 L 10.964844 11.578125 L 10.964844 10.914062 L 12.792969 8.101562 L 11.128906 8.101562 L 11.128906 7.34375 L 14.476562 7.34375 L 15.355469 9.050781 L 16.128906 7.34375 L 16.902344 7.34375 L 15.78125 9.871094 M 10.703125 11.578125 L 8.164062 11.578125 L 8.164062 7.34375 L 10.703125 7.34375 L 10.703125 8.101562 L 8.980469 8.101562 L 8.980469 9.082031 L 10.578125 9.082031 L 10.578125 9.804688 L 8.980469 9.804688 L 8.980469 10.851562 L 10.703125 10.851562 L 10.703125 11.578125 M 10.246094 18.578125 L 10.277344 20.980469 L 5.027344 17.207031 L 5.050781 20.089844 L 10.277344 23.894531 L 10.28125 25.742188 L 3.367188 20.847656 L 3.441406 11.050781 L 5.054688 13.019531 L 5.054688 14.710938 L 10.246094 18.578125 "/>
<path style=" stroke:none;fill-rule:evenodd;fill:rgb(97.254902%,84.313726%,19.215687%);fill-opacity:1;" d="M 10.703125 7.34375 L 8.164062 7.34375 L 8.164062 11.578125 L 10.703125 11.578125 L 10.703125 10.851562 L 8.980469 10.851562 L 8.980469 9.804688 L 10.578125 9.804688 L 10.578125 9.082031 L 8.980469 9.082031 L 8.980469 8.101562 L 10.703125 8.101562 L 10.703125 7.34375 M 13.828125 7.648438 L 13.675781 7.34375 L 11.128906 7.34375 L 11.128906 8.101562 L 12.792969 8.101562 L 10.964844 10.914062 L 10.964844 11.578125 L 13.683594 11.578125 L 13.683594 10.875 L 11.929688 10.875 L 13.828125 7.648438 M 14.476562 7.34375 L 13.675781 7.34375 L 14.96875 9.871094 L 14.96875 11.578125 L 15.78125 11.578125 L 15.78125 9.871094 L 16.902344 7.34375 L 16.128906 7.34375 L 15.355469 9.050781 L 14.476562 7.34375 M 20.027344 9.484375 L 12.355469 16.085938 L 12.359375 19.757812 L 13.589844 16.488281 L 13.585938 16.246094 L 20.027344 9.484375 M 12.355469 16.085938 L 4.617188 9.484375 L 11.160156 16.246094 L 11.15625 16.488281 L 12.359375 19.757812 L 12.355469 16.085938 "/>
<path style=" stroke:none;fill-rule:evenodd;fill:rgb(92.941177%,93.333334%,60.000002%);fill-opacity:1;" d="M 20.027344 9.484375 L 12.285156 15.214844 L 4.617188 9.484375 L 12.355469 16.085938 L 20.027344 9.484375 "/>
<path style=" stroke:none;fill-rule:evenodd;fill:rgb(0%,100%,100%);fill-opacity:1;" d="M 5.054688 14.710938 L 5.054688 13.019531 L 3.441406 11.050781 L 3.367188 20.847656 L 10.28125 25.742188 L 10.277344 23.894531 L 5.050781 20.089844 L 5.027344 17.207031 L 10.277344 20.980469 L 10.246094 18.578125 L 5.054688 14.710938 M 12.359375 19.757812 L 11.15625 16.488281 L 10.882812 27.699219 L 12.335938 28.695312 L 12.359375 19.757812 "/>
<path style=" stroke:none;fill-rule:evenodd;fill:rgb(57.647061%,58.431375%,59.607846%);fill-opacity:1;" d="M 13.589844 16.488281 L 12.359375 19.757812 L 12.335938 28.695312 L 13.753906 27.699219 L 13.589844 16.488281 "/>
<path style=" stroke:none;fill-rule:evenodd;fill:rgb(50.196081%,50.196081%,50.196081%);fill-opacity:1;" d="M 21.109375 11.050781 L 19.496094 13.019531 L 19.496094 14.710938 L 14.304688 18.578125 L 14.273438 20.980469 L 19.523438 17.207031 L 19.5 20.089844 L 14.273438 23.894531 L 14.269531 25.742188 L 21.183594 20.847656 L 21.109375 11.050781 "/>
</g>
</svg>
